<?xml version="1.0" encoding="UTF-8" standalone="no"?>
<!-- Created with Inkscape (http://www.inkscape.org/) -->
<!-- Paths based on data provided by Geoscience Australia at
     https://www.ga.gov.au/products/servlet/controller?event=GEOCAT_DETAILS&catno=61755 -->
     
<svg
   xmlns:dc="http://purl.org/dc/elements/1.1/"
   xmlns:cc="http://creativecommons.org/ns#"
   xmlns:rdf="http://www.w3.org/1999/02/22-rdf-syntax-ns#"
   xmlns:svg="http://www.w3.org/2000/svg"
   xmlns="http://www.w3.org/2000/svg"
   xmlns:sodipodi="http://sodipodi.sourceforge.net/DTD/sodipodi-0.dtd"
   xmlns:inkscape="http://www.inkscape.org/namespaces/inkscape"
   width="698.22388"
   height="644.37323"
   id="svg5424"
   version="1.1"
   inkscape:version="0.47pre4 r22446"
   sodipodi:docname="australian_states_graphic.svg">
  <defs
     id="defs5426">
    <inkscape:perspective
       sodipodi:type="inkscape:persp3d"
       inkscape:vp_x="0 : 526.18109 : 1"
       inkscape:vp_y="0 : 1000 : 0"
       inkscape:vp_z="744.09448 : 526.18109 : 1"
       inkscape:persp3d-origin="372.04724 : 350.78739 : 1"
       id="perspective5432" />
    <inkscape:perspective
       id="perspective5412"
       inkscape:persp3d-origin="0.5 : 0.33333333 : 1"
       inkscape:vp_z="1 : 0.5 : 1"
       inkscape:vp_y="0 : 1000 : 0"
       inkscape:vp_x="0 : 0.5 : 1"
       sodipodi:type="inkscape:persp3d" />
  </defs>
  <sodipodi:namedview
     id="base"
     pagecolor="#ffffff"
     bordercolor="#666666"
     borderopacity="1.0"
     inkscape:pageopacity="0.0"
     inkscape:pageshadow="2"
     inkscape:zoom="0.7"
     inkscape:cx="88.283392"
     inkscape:cy="254.77467"
     inkscape:document-units="px"
     inkscape:current-layer="layer1"
     showgrid="false"
     inkscape:window-width="1680"
     inkscape:window-height="971"
     inkscape:window-x="0"
     inkscape:window-y="25"
     inkscape:window-maximized="1"
     showborder="true"
     borderlayer="false"
     inkscape:showpageshadow="true" />
  <metadata
     id="metadata5429">
    <rdf:RDF>
      <cc:Work
         rdf:about="">
        <dc:format>image/svg+xml</dc:format>
        <dc:type
           rdf:resource="http://purl.org/dc/dcmitype/StillImage" />
        <dc:title></dc:title>
      </cc:Work>
    </rdf:RDF>
  </metadata>
  <g
     inkscape:label="Layer 1"
     inkscape:groupmode="layer"
     id="layer1"
     transform="translate(-19.459493,-38.747007)">
    <path
       style="fill:#bfffbf;fill-opacity:0.8;stroke:#000000;stroke-width:1;stroke-miterlimit:10;stroke-opacity:1;stroke-dasharray:none"
       d="m 98.281161,522.44224 c -2.43453,-1.07693 -4.86453,-2.66694 -5.40001,-3.53334 -1.40746,-2.27734 -10.41477,-5.78797 -12.64978,-4.93031 -1.98813,0.76292 -3.63275,-3.26252 -3.66743,-8.9765 -0.0136,-2.22674 0.81486,-3.18198 2.75936,-3.18198 4.65616,0 5.80831,-4.50955 4.95443,-19.39174 -0.98335,-17.13874 -0.95025,-17.03182 -9.05597,-29.26226 -7.21989,-10.89384 -11.40505,-20.67405 -11.40505,-26.65218 0,-4.18425 -4.10955,-13.78928 -5.89981,-13.78928 -0.62332,0 -1.99859,-2.06829 -3.05616,-4.59619 -1.05757,-2.52791 -3.60112,-6.18719 -5.65232,-8.13173 -2.05121,-1.94454 -4.12783,-5.76292 -4.61471,-8.48528 -0.48688,-2.72236 -3.63819,-8.55677 -7.00292,-12.96534 -4.62431,-6.05895 -5.62222,-8.20572 -4.08801,-8.79446 1.11631,-0.42836 2.02966,-1.6827 2.02966,-2.78741 0,-1.10472 1.11369,-1.92019 2.47487,-1.81216 3.36305,0.2669 3.75097,-9.80226 0.50761,-13.17606 -3.7762,-3.92809 -11.46777,-13.97418 -11.46777,-14.97828 0,-0.51668 -1.59099,-2.83021 -3.53553,-5.14117 -4.11967,-4.89595 -4.72959,-13.12984 -1.44333,-19.48478 2.32607,-4.49812 2.03482,-14.46523 -0.51237,-17.53441 -1.22787,-1.47949 -1.21502,-3.82702 0.0524,-9.5654 l 1.67961,-7.60472 1.20643,5.57292 c 1.48471,6.85835 1.65176,7.02964 5.07116,5.19964 1.72598,-0.92373 3.10565,-3.63537 3.68132,-7.23537 0.79417,-4.96648 1.8211,-6.28567 7.47109,-9.59731 3.60271,-2.11166 8.20548,-5.72527 10.22839,-8.03026 10.93722,-12.46232 21.6596,-19.45659 25.85367,-16.86451 2.5314,1.56449 9.99066,-1.27831 13.40291,-5.10797 2.0733,-2.32692 5.68502,-4.36483 8.72792,-4.9247 3.087209,-0.56803 6.769449,-2.66719 9.085759,-5.17957 2.79343,-3.02989 4.69035,-3.97194 6.70829,-3.33147 1.62483,0.5157 7.39121,-0.78917 13.64837,-3.08848 13.79196,-5.06811 22.055,-12.34513 26.4446,-23.28896 1.808,-4.5076 5.17541,-9.65067 7.7214,-11.79298 4.60321,-3.87335 5.93208,-8.49658 2.74731,-9.55817 -1.09886,-0.36628 -1.76777,-3.25566 -1.76777,-7.63589 0,-5.95679 0.63343,-7.63367 4.09559,-10.8423 2.25259,-2.08762 4.61909,-3.79567 5.25893,-3.79567 0.63982,0 0.75694,-1.05899 0.26027,-2.35331 -1.73435,-4.51964 2.34066,-0.41618 8.29699,8.35492 5.37526,7.9154 5.97573,8.3884 7.03024,5.5378 0.63413,-1.71425 2.15943,-3.50304 3.38956,-3.97507 1.23011,-0.47204 1.94067,-1.62934 1.57903,-2.57178 -0.36165,-0.94243 -0.12545,-2.57439 0.52478,-3.62656 0.80328,-1.29972 0.19458,-2.40548 -1.89861,-3.44905 -3.40388,-1.69702 -4.33002,-7.37788 -1.08921,-6.68113 1.09545,0.23551 2.47883,-0.35996 3.07419,-1.32328 0.86039,-1.39213 1.51626,-1.39147 3.19679,0.003 1.29116,1.07157 5.04956,1.56633 9.65371,1.27082 l 7.53943,-0.4839 -6.01041,-1.18895 c -6.08095,-1.2029 -7.61016,-2.73938 -4.07616,-4.09551 1.06385,-0.40823 2.24838,-2.3855 2.63232,-4.39394 0.54829,-2.86826 0.13331,-3.65173 -1.93425,-3.65173 -3.3769,0 -3.35153,-2.10921 0.0665,-5.52723 2.3878,-2.38781 3.02899,-2.46755 5.56401,-0.69194 3.33994,2.33937 5.11449,0.59364 3.75398,-3.69298 -0.68983,-2.17353 -0.24584,-2.81577 1.9466,-2.81577 4.2497,0 5.06437,-2.64612 1.71026,-5.55513 l -2.97084,-2.5766 4.60876,-1.86425 c 2.53481,-1.02534 5.07631,-2.53678 5.64776,-3.35876 0.61746,-0.88816 1.0478,-0.49042 1.06066,0.98037 0.0113,1.36118 0.38531,2.47488 0.82978,2.47488 1.05028,0 4.96488,-3.91461 4.89923,-4.89924 -0.18151,-2.72289 0.26419,-3.33846 2.92023,-4.03302 1.63579,-0.42777 2.55152,-1.45512 2.03785,-2.28626 -0.51308,-0.83017 -0.23893,-1.5094 0.6092,-1.5094 0.84813,0 1.91366,0.96835 2.36782,2.1519 0.66902,1.74344 1.4703,1.45644 4.22131,-1.51195 1.86756,-2.015132 3.02942,-4.256282 2.58193,-4.980342 -0.4475,-0.72406 -0.17723,-1.31647 0.60059,-1.31647 0.77782,0 1.80752,0.6364 2.28824,1.41421 0.48072,0.77782 2.16165,1.41422 3.7354,1.41422 1.57376,0 6.12168,3.243212 10.1065,7.207142 6.66956,6.63457 7.21277,7.67382 6.83772,13.08147 -0.23354,3.36724 -1.57017,7.12626 -3.13183,8.80768 -1.49843,1.61334 -2.29294,3.36482 -1.76559,3.89218 1.52568,1.52568 6.13811,-3.43976 6.13811,-6.6079 0,-2.83958 0.0308,-2.84145 2.22279,-0.13436 2.10912,2.60478 2.18325,2.51012 1.44957,-1.85102 -0.58167,-3.45756 -0.25645,-4.5962 1.31274,-4.5962 1.14728,0 2.08597,-1.02358 2.08597,-2.27463 0,-1.77483 0.85391,-2.06031 3.88619,-1.29926 2.1374,0.53645 3.96399,1.08274 4.0591,1.21397 0.095,0.13123 1.23126,27.28544 2.52481,60.34268 1.29355,33.05724 2.9587,75.37758 3.70033,94.0452 3.41809,86.03552 5.56391,142.72948 5.95326,157.28751 l 0.42434,15.86616 -6.67809,3.63467 c -10.84822,5.90434 -22.11013,9.18074 -31.55682,9.18074 -7.57612,0 -9.58728,0.60015 -14.89435,4.44456 -3.37456,2.44451 -9.97413,6.43169 -14.66574,8.86037 -4.90296,2.53812 -9.24533,5.91003 -10.21201,7.92981 -0.92499,1.93269 -2.83876,5.90048 -4.25282,8.8173 -1.41406,2.91681 -3.53999,5.33376 -4.72428,5.37098 -8.77809,0.27594 -17.79045,1.65412 -19.36563,2.96142 -1.3733,1.13973 -1.87953,1.13249 -1.87953,-0.0269 0,-3.12538 -27.87009,0.33178 -36.65888,4.54738 -1.88367,0.90351 -4.47734,3.55194 -5.76369,5.88539 -1.4031,2.54521 -3.7106,4.42794 -5.76753,4.70581 -1.88578,0.25474 -5.74426,2.96227 -8.57439,6.01671 -5.36005,5.78493 -15.3604,11.14763 -15.3604,8.23706 0,-0.94543 -0.99818,-1.18303 -2.47488,-0.5891 -4.92774,1.98195 -13.88437,2.04604 -18.214999,0.13039 l 0,-3e-5 z"
       id="wa" />
    <path
       style="fill:#87ff87;fill-opacity:0.8;stroke:#000000;stroke-width:1;stroke-miterlimit:10;stroke-opacity:1;stroke-dasharray:none"
       d="m 297.13779,319.39196 c -0.0133,-5.05878 -0.62637,-23.19851 -1.36242,-40.31049 -0.73604,-17.11198 -2.30372,-56.88674 -3.48373,-88.38835 -1.18001,-31.5016 -2.52109,-61.63667 -2.98017,-66.96682 -0.55716,-6.46885 -0.35177,-9.39271 0.6177,-8.79354 0.79881,0.49369 1.0939,1.83184 0.65574,2.97366 -0.43815,1.14181 -0.0716,2.07603 0.81445,2.07603 0.8861,0 2.13388,-1.41324 2.77284,-3.14052 l 1.16175,-3.14052 1.96129,3.14052 c 1.07871,1.72728 2.69471,3.14052 3.59112,3.14052 0.8964,0 1.99614,0.95459 2.44385,2.12132 0.90982,2.37093 3.73123,2.90562 3.73123,0.7071 0,-0.77782 -1.27279,-2.687 -2.82843,-4.24264 -3.60095,-3.60095 -3.60095,-5.65685 0,-5.65685 1.55564,0 2.82843,-0.6364 2.82843,-1.41422 0,-0.77781 -0.97699,-1.41421 -2.17108,-1.41421 -1.78218,0 -1.88009,-0.54371 -0.54661,-3.03534 1.46784,-2.74268 1.32313,-2.95654 -1.50086,-2.21805 -3.47532,0.90882 -7.09516,-0.0629 -7.09516,-1.9047 0,-0.65924 1.59099,-2.78962 3.53553,-4.734162 1.94455,-1.94454 3.53554,-5.01593 3.53554,-6.825297 0,-2.39067 1.21616,-3.74882 4.44988,-4.96941 2.44744,-0.9238 4.99302,-1.34397 5.65685,-0.93369 2.18229,1.34872 1.2595,-2.67576 -1.24912,-5.44776 -2.33199,-2.57682 -2.33199,-2.80471 0,-4.50991 1.35085,-0.98777 2.4561,-2.52128 2.4561,-3.4078 0,-0.88652 0.95459,-1.61186 2.12132,-1.61186 1.20289,0 2.12132,-1.2683 2.12132,-2.92944 0,-2.71198 0.17172,-2.75772 2.31325,-0.6162 1.68987,1.68988 2.73472,1.89178 3.87726,0.74924 1.14255,-1.14255 0.99555,-1.92342 -0.54548,-2.89769 -1.78999,-1.13167 -1.73465,-1.33695 0.36538,-1.35532 1.36118,-0.0119 2.47487,-0.5365 2.47487,-1.16575 0,-1.31948 22.94135,-1.11706 25.10723,0.22153 0.79269,0.48991 1.78468,-0.4225 2.20442,-2.02758 0.64556,-2.46861 1.21517,-2.67642 3.69632,-1.34855 3.03331,1.62338 4.29463,-0.3498 1.37647,-2.15332 -1.7724,-1.0954 -0.66867,-8.54427 1.68652,-11.38211 1.21333,-1.46196 2.19818,-1.06023 4.79126,1.9544 2.55525,2.97066 4.52492,3.79462 9.07094,3.79462 3.19383,0 5.80695,0.49176 5.80695,1.0928 0,0.60104 0.90914,1.09281 2.02031,1.09281 1.11117,0 2.86126,0.79549 3.88909,1.76776 2.67753,2.5328 11.06072,3.13718 11.06289,0.79758 9.5e-4,-1.02203 1.59724,-0.003 3.54731,2.26451 3.33804,3.88143 3.85035,4.02922 8.75231,2.52477 3.64964,-1.12011 5.74223,-1.15358 6.99735,-0.11192 0.98484,0.81734 2.3882,1.11674 3.11859,0.66534 0.73038,-0.45141 1.65899,0.0419 2.06358,1.09622 1.30233,3.39382 6.50934,3.7666 8.21056,0.58782 1.1397,-2.12955 1.10397,-3.15127 -0.13703,-3.91828 -1.20817,-0.74668 -1.05692,-1.2762 0.53952,-1.8888 1.37176,-0.5264 2.78524,0.20804 3.70387,1.92451 0.817,1.52667 2.41769,2.77577 3.55705,2.77577 1.13937,0 2.07157,0.67395 2.07157,1.49767 0,0.82372 -0.63639,1.10437 -1.41421,0.62365 -0.77782,-0.48072 -1.41421,0.0957 -1.41421,1.28099 0,1.18527 -1.2728,2.8362 -2.82843,3.66875 -1.55564,0.83256 -2.82843,2.71478 -2.82843,4.18273 0,1.80516 -1.63039,3.20707 -5.03745,4.3315 -5.72892,1.89072 -8.57006,6.99876 -6.27646,11.28439 0.77793,1.45357 1.41442,3.233587 1.41442,3.955577 0,1.11953 -4.9011,8.070662 -9.88262,14.016332 -2.80446,3.34725 -1.33914,6.19362 5.14494,9.994 3.61682,2.11985 9.32764,6.55896 12.6907,9.86468 3.36308,3.30572 7.32406,6.01041 8.8022,6.01041 3.47432,0 15.75731,6.84274 18.95265,10.55837 1.97325,2.29454 2.32726,4.59373 1.74934,11.36194 -0.39848,4.6669 -1.66631,40.62328 -2.81737,79.90306 -1.15107,39.27978 -2.46002,76.50896 -2.90878,82.7315 l -0.81592,11.3137 -77.68297,0.006 -77.68297,0.005 -0.0241,-9.19778 z"
       id="nt" />
    <path
       style="fill:#caffca;fill-opacity:0.8;stroke:#000000;stroke-width:1;stroke-miterlimit:10;stroke-opacity:1;stroke-dasharray:none"
       d="m 486.98124,566.08664 c -1.72871,-1.21084 -3.14311,-2.92611 -3.14311,-3.81172 0,-0.88559 -1.60827,-3.28887 -3.57394,-5.34058 -3.46058,-3.61207 -3.70415,-4.84201 -3.24776,-16.39973 0.21477,-5.43875 -4.39103,-15.22722 -10.10392,-21.47335 -4.05252,-4.4308 -4.44671,-4.56215 -7.42672,-2.47487 -1.73089,1.21235 -4.05868,2.20428 -5.17289,2.20428 -1.66547,0 -1.62148,-0.44682 0.24734,-2.51181 3.43293,-3.79336 4.67906,-13.97365 2.07719,-16.96972 -1.16484,-1.34134 -2.53369,-4.18887 -3.04189,-6.32787 -1.74935,-7.36299 -3.71931,-5.24304 -8.10229,8.71918 -1.07812,3.43436 -2.9148,6.39111 -4.08152,6.57055 -1.16673,0.17943 -3.87861,0.78138 -6.0264,1.33765 -3.23222,0.83713 -3.75441,0.61877 -3.03067,-1.26725 0.52525,-1.36881 2.50804,-2.27865 4.96573,-2.27865 3.97028,0 4.09134,-0.21058 4.09134,-7.1165 0,-8.0832 3.02487,-16.54661 6.37308,-17.83143 1.69154,-0.6491 2.02449,-1.93046 1.3269,-5.10653 -0.54304,-2.4725 -0.30819,-4.62507 0.56341,-5.16375 1.04898,-0.6483 1.04277,-2.70407 -0.0209,-6.8944 -1.73889,-6.851 -3.99982,-7.91328 -3.99982,-1.87932 0,2.27568 -0.91305,4.44171 -2.05743,4.88084 -1.13158,0.43423 -3.29329,3.212 -4.80379,6.17282 -1.6629,3.25955 -5.03356,6.6688 -8.544,8.64177 -3.18871,1.79216 -7.55007,5.60553 -9.69191,8.47418 -2.14184,2.86864 -4.68975,6.05666 -5.66202,7.0845 -0.97227,1.02782 -1.76776,2.77791 -1.76776,3.88909 0,1.11116 -0.61175,2.0203 -1.35943,2.0203 -1.26627,0 -5.71164,-12.66578 -5.71164,-16.27363 0,-0.88996 -1.59099,-3.11276 -3.53554,-4.93957 -1.94454,-1.82681 -3.53553,-4.43127 -3.53553,-5.78772 0,-4.24442 -1.6216,-6.94021 -4.17476,-6.94021 -3.65239,0 -7.28855,-4.55149 -5.67485,-7.10336 2.15048,-3.40071 1.56766,-5.6168 -1.81765,-6.91148 -1.75009,-0.6693 -4.4023,-2.57157 -5.89381,-4.22726 -2.10069,-2.33195 -3.72485,-2.82031 -7.20703,-2.16705 -3.20349,0.60097 -5.18809,0.15043 -6.90641,-1.56789 -1.7303,-1.7303 -3.78328,-2.18854 -7.27,-1.62273 -3.88013,0.62966 -6.48371,-0.18999 -12.92599,-4.06933 -8.50066,-5.11883 -10.47645,-5.61925 -14.33696,-3.63119 -1.31004,0.67464 -8.8112,1.564 -16.66925,1.97636 l -14.28735,0.74975 -1.69333,-50.41318 c -0.93133,-27.72725 -1.85763,-52.08264 -2.05843,-54.12309 -0.35303,-3.58729 -0.0586,-3.73887 8.90961,-4.58614 24.4845,-2.31317 195.13875,0.0313 197.90153,2.71883 0.92997,0.90462 -3.90549,91.62812 -9.71925,182.35392 -0.79749,12.44508 -1.82352,29.15047 -2.28007,37.1231 -0.45655,7.97263 -1.26364,14.49569 -1.79353,14.49569 -0.52991,0 -2.37786,-0.99068 -4.10655,-2.2015 z"
       id="sa" />
    <path
       style="fill:#c5ffc5;fill-opacity:0.8;stroke:#000000;stroke-width:1;stroke-miterlimit:10;stroke-opacity:1;stroke-dasharray:none"
       d="m 677.36827,403.95605 c -1.6689,-2.17762 -4.0529,-3.96324 -5.2977,-3.96803 -1.2449,-0.004 -4.1725,-1.01389 -6.506,-2.24245 -6.7399,-3.54856 -14.67163,-3.36424 -22.10394,0.51366 l -6.5476,3.41627 -21.02956,-2.25638 c -27.0974,-2.90744 -92.12046,-7.90357 -102.89265,-7.90588 l -8.32397,-0.002 0.9317,-16.61701 c 0.51244,-9.13936 1.31876,-22.45217 1.79182,-29.58403 l 0.86011,-12.96703 -6.19577,-0.76171 c -3.40767,-0.41893 -15.09484,-1.14938 -25.97148,-1.62324 -10.87665,-0.47385 -19.99023,-1.07605 -20.25239,-1.33822 -0.26217,-0.26217 0.21046,-20.74337 1.05029,-45.5138 0.83984,-24.77042 2.2059,-65.07891 3.03569,-89.57442 0.8298,-24.49551 1.62864,-44.65721 1.7752,-44.80376 0.14656,-0.14656 4.23696,1.01936 9.08978,2.59095 7.00055,2.26712 9.0019,3.56899 9.68782,6.30188 0.5342,2.12843 3.36911,4.8909 7.41981,7.23021 3.60542,2.08216 6.96224,4.3764 7.45961,5.09833 0.5009,0.72706 3.75277,0.88542 7.2898,0.35501 6.85641,-1.02818 13.72621,-6.11794 13.72621,-10.16962 0,-1.3249 1.57726,-4.47681 3.50502,-7.00424 1.92777,-2.52743 4.19755,-7.67867 5.04397,-11.44719 0.84642,-3.76853 2.50489,-9.71565 3.68549,-13.21583 2.42317,-7.1841 3.57238,-28.15409 1.67625,-30.587132 -1.54963,-1.98841 0.95192,-9.010847 3.20986,-9.010847 1.07231,0 1.36295,-1.67191 0.84524,-4.86217 -0.76204,-4.6959 1.58977,-9.05195 3.73104,-6.91068 0.5118,0.5118 0.93054,-0.71348 0.93054,-2.72284 0,-2.00937 -0.68443,-3.88153 -1.52096,-4.16038 -2.75677,-0.91892 0.12058,-8.21399 3.23979,-8.21399 1.97649,0 2.57251,-0.66168 1.98206,-2.20037 -0.4644,-1.21021 0.10392,-4.46991 1.26291,-7.24378 1.159,-2.77387 2.10727,-6.32742 2.10727,-7.89677 0,-4.05882 4.20426,-6.94113 6.61224,-4.53315 1.00239,1.0024 2.53278,2.05929 3.40087,2.34865 1.30558,0.4352 2.30495,6.5942 2.6519,16.34344 0.0346,0.97227 1.46298,1.76776 3.17418,1.76776 2.41988,0 2.73415,0.37713 1.41422,1.69706 -2.05505,2.05505 -2.25227,6.78822 -0.28285,6.78822 0.77782,0 1.41422,0.9546 1.41422,2.12133 0,1.16672 0.67928,2.12132 1.50951,2.12132 0.8955,0 1.12157,1.2223 0.55577,3.00498 -0.53492,1.68538 -0.27493,3.42452 0.59204,3.96034 0.85018,0.52544 1.79825,6.01445 2.10683,12.197807 0.71247,14.276972 2.49271,19.020632 7.1382,19.020632 1.91789,0 3.88038,-0.63639 4.3611,-1.41421 1.55592,-2.51753 6.59305,-1.55076 7.36841,1.41421 0.40681,1.55564 1.20744,2.82843 1.77917,2.82843 0.57174,0 2.99572,1.86944 5.38662,4.15431 4.52939,4.32853 5.09077,7.76666 4.78762,29.32109 -0.0494,3.51252 0.74535,6.58567 1.96488,7.59779 1.12631,0.93475 2.04783,2.54459 2.04783,3.57743 0,1.03283 0.82881,2.3868 1.8418,3.00882 3.24006,1.98951 5.52983,15.65527 3.54351,21.14833 -1.47525,4.07974 -1.36217,5.39211 0.77658,9.01274 1.3768,2.33072 2.12742,5.42185 1.66805,6.86919 -0.59067,1.86102 0.63964,3.92645 4.20192,7.05417 2.77041,2.43246 5.96956,4.42265 7.10923,4.42265 1.13966,0 2.07211,0.57415 2.07211,1.27586 0,0.70174 1.95692,1.95807 4.34872,2.79185 2.39179,0.83379 4.02477,2.04011 3.62884,2.68074 -0.99211,1.60528 0.81507,4.24145 3.29426,4.80542 2.42967,0.55271 5.02708,2.37294 8.23388,5.77025 1.28485,1.36118 2.99015,2.49511 3.78956,2.51984 0.79942,0.0247 2.6616,0.95945 4.13822,2.07713 2.1358,1.61667 2.3402,2.44721 0.9997,4.06239 -1.8538,2.23376 -0.6964,9.37186 1.5196,9.37186 2.5004,0 5.4052,4.00445 4.5401,6.25889 -0.4699,1.22451 -0.1699,2.22639 0.6668,2.22639 0.8366,0 1.1863,0.87247 0.7771,1.93883 -0.4092,1.06635 0.1264,2.27286 1.1904,2.6811 1.3863,0.53201 1.8245,2.98737 1.5467,8.66778 -0.2156,4.41017 0.217,7.9255 0.9754,7.9255 0.7496,0 1.3629,1.06066 1.3629,2.35702 0,1.29636 0.4257,1.93137 0.9459,1.41112 0.5203,-0.52023 2.1781,0.1692 3.6842,1.53207 2.6229,2.37348 2.7252,2.3587 2.4268,-0.35047 -0.7183,-6.52154 0.1373,-6.85895 4.3706,-1.72329 2.396,2.90681 4.8783,4.96255 5.5162,4.56831 0.6379,-0.39424 0.9252,3.46388 0.6383,8.57358 -0.5151,9.17752 -0.4533,9.36136 5.0904,15.13069 3.0865,3.21216 5.6119,6.27427 5.6119,6.80467 0,0.53042 1.2438,1.28965 2.764,1.6872 1.5756,0.41202 3.1741,2.45919 3.7177,4.76113 0.5245,2.22108 2.4173,5.62932 4.2062,7.57387 1.7889,1.94454 3.6978,5.33636 4.2421,7.53737 0.5442,2.20102 2.0215,4.4284 3.2828,4.94975 1.436,0.59355 2.3639,2.79828 2.4821,5.89765 0.1038,2.72237 0.3459,6.22254 0.5378,7.77818 0.192,1.55563 -0.059,4.73761 -0.5574,7.07107 -2.0171,9.4418 -2.6332,20.5124 -1.2379,22.24357 2.9041,3.60317 3.4608,10.5176 1.0416,12.93681 -2.4704,2.47037 -8.6707,3.0144 -11.7948,1.03492 -1.1663,-0.73895 -4.0866,-0.36792 -7.4247,0.94328 -4.1115,1.61507 -5.5022,2.96161 -5.5022,5.32762 0,2.56643 -0.9388,3.27589 -4.9553,3.74481 -4.1219,0.4812 -5.4657,-0.0874 -7.9897,-3.38082 l 0,0 z"
       id="qld" />
    <path
       style="fill:#dcffdc;fill-opacity:0.8;stroke:#000000;stroke-width:1;stroke-miterlimit:10;stroke-opacity:1;stroke-dasharray:none"
       d="m 621.30768,560.45172 c -6.81244,-4.56097 -11.64395,-8.78111 -11.69998,-10.21949 -0.19788,-5.07979 -1.37994,-12.17518 -2.15817,-12.95454 -0.44449,-0.44515 -4.60115,-0.91303 -9.23702,-1.03974 -4.63586,-0.12672 -9.27566,-0.93319 -10.31067,-1.79216 -1.03501,-0.85898 -2.94108,-1.15532 -4.23573,-0.65852 -1.29464,0.49681 -5.03458,-0.0663 -8.31097,-1.25148 -10.893,-3.94015 -15.12197,-4.16636 -16.33989,-0.87402 -0.97563,2.63739 -2.14017,1.86374 -11.928,-7.92408 -7.52246,-7.52246 -10.75017,-11.76502 -10.53147,-13.84275 0.3303,-3.13785 -5.35743,-6.95753 -10.99835,-7.3861 -1.55563,-0.11819 -3.05281,-1.37279 -3.32705,-2.78799 -0.85473,-4.4107 -5.08201,-7.70241 -10.17158,-7.92043 -2.68738,-0.11512 -6.70124,-0.8757 -8.9197,-1.69018 -4.03246,-1.48048 -4.03333,-1.48361 -3.22463,-11.50252 0.4449,-5.5119 1.49199,-23.70415 2.32686,-40.42722 0.83487,-16.72308 1.86185,-33.80592 2.28219,-37.96188 l 0.76424,-7.55628 9.42773,0.81437 c 5.18525,0.44791 15.15529,1.18754 22.15565,1.64363 23.76791,1.54853 79.14491,6.34151 90.82005,7.86063 11.03547,1.4359 11.84917,1.35222 16.06901,-1.65258 5.43211,-3.86801 13.33797,-4.68916 18.83967,-1.95681 2.2585,1.12165 4.8642,2.03936 5.7904,2.03936 2.7297,0 9.1951,6.24661 9.1951,8.88386 0,2.87887 0.5992,2.97457 4.6892,0.7489 1.6989,-0.92452 4.2612,-1.77707 5.6938,-1.89455 2.6201,-0.21486 5.1115,-2.95223 5.1517,-5.66039 0.03,-2.02145 7.8343,-4.78175 9.9037,-3.50283 0.9309,0.57533 4.4976,0.85854 7.9261,0.62934 5.9631,-0.39865 6.2335,-0.24745 6.2335,3.48533 0,2.14613 -1.5883,7.03279 -3.5296,10.85925 -1.9413,3.82645 -3.5323,7.76857 -3.5355,8.76026 0,0.99169 -2.2711,6.30112 -5.0397,11.79872 -2.7686,5.49761 -4.883,11.36839 -4.6987,13.04617 0.41,3.73272 -5.0043,15.30544 -8.7441,18.6899 -1.5052,1.36216 -2.7367,3.89583 -2.7367,5.63036 0,4.13426 -6.8298,8.94571 -8.6632,6.10304 -0.947,-1.46829 -1.4404,-1.17222 -2.1084,1.26505 -0.4796,1.75009 -1.7899,3.18198 -2.9118,3.18198 -1.1219,0 -1.6465,0.6364 -1.1658,1.41421 0.4807,0.77782 0.021,1.41422 -1.0207,1.41422 -1.0421,0 -2.6154,1.90918 -3.4962,4.24264 -0.916,2.42696 -2.6324,4.24264 -4.0105,4.24264 -1.7128,0 -2.1953,0.81745 -1.6695,2.82842 0.4808,1.83829 0.043,2.82843 -1.2492,2.82843 -1.0939,0 -1.9889,1.33151 -1.9889,2.95892 0,1.6274 -1.2728,4.57701 -2.8285,6.55468 -1.5556,1.97767 -2.8284,4.49975 -2.8284,5.60462 0,1.10487 -3.2257,7.03749 -7.16831,13.1836 -3.94255,6.14612 -7.80163,13.58856 -8.57573,16.53875 -0.77408,2.95021 -2.37979,7.49257 -3.56821,10.09416 -1.18843,2.60157 -1.86212,5.8722 -1.49709,7.26807 1.55677,5.95312 -1.49241,5.44093 -12.84095,-2.15697 l 0,0 z m 5.87401,-27.17508 c 0.72346,-2.52256 1.85972,-4.58648 2.52502,-4.58648 1.94332,0 1.39235,-3.74467 -0.82129,-5.58183 -1.47766,-1.22635 -2.79997,-1.27393 -4.85397,-0.17466 -3.57763,1.91469 -4.90163,6.04121 -3.69744,11.52385 1.23798,5.63648 5.08264,4.97347 6.84768,-1.18088 l 0,0 z"
       id="nsw" />
    <path
       style="fill:#e7ffe7;fill-opacity:0.8;stroke:#000000;stroke-width:1;stroke-miterlimit:10;stroke-opacity:1;stroke-dasharray:none"
       d="m 568.69095,587.53334 c 0,-1.08241 -1.68304,-2.39043 -3.7401,-2.90671 -2.80847,-0.70489 -3.33687,-1.34193 -2.12132,-2.55748 2.72059,-2.72059 1.81012,-5.29573 -1.87237,-5.29573 -2.25368,0 -3.24518,-0.64098 -2.79723,-1.80834 0.38167,-0.99459 -0.11561,-2.90576 -1.10504,-4.24704 -1.70209,-2.30736 -2.08208,-2.30518 -7.05622,0.0406 -5.66881,2.67337 -6.83808,4.5673 -2.87448,4.65595 1.36118,0.0304 0.25203,1.0193 -2.46478,2.19746 -2.7168,1.17816 -6.32194,3.44071 -8.01141,5.02788 -3.58163,3.36477 -7.21865,2.71723 -14.22816,-2.5332 -6.217,-4.65681 -19.08231,-8.79846 -19.88167,-6.40039 -0.38192,1.14579 -1.85514,0.40435 -4.17909,-2.10322 l -3.58921,-3.87283 1.10796,-21.99492 c 2.81596,-55.90144 2.52195,-53.15754 5.63797,-52.61668 1.55564,0.27003 4.73762,0.65125 7.07107,0.84718 2.33345,0.19592 5.06075,0.45229 6.06067,0.56971 0.99991,0.11742 3.04558,3.07727 4.54593,6.57745 2.67515,6.24086 4.62654,7.76096 6.36076,4.95493 1.5835,-2.56215 9.19559,2.54625 9.19559,6.17107 0,1.80136 1.43189,4.60417 3.18198,6.22846 1.75009,1.62429 6.36566,6.17987 10.25683,10.12351 7.20117,7.29829 11.0674,8.85637 12.52845,5.04894 1.04937,-2.7346 5.57344,-2.70394 10.94575,0.0742 2.33509,1.20752 6.28097,2.40671 8.7686,2.66486 2.48764,0.25815 5.66785,0.94122 7.06716,1.51794 1.3993,0.57671 6.17227,1.12761 10.6066,1.22422 l 8.06242,0.17565 0.42146,7.25167 0.42146,7.25166 11.22486,7.59758 c 15.37869,10.40911 14.76671,11.9604 -4.5055,11.42095 l -14.9788,-0.41927 -7.60545,7.12514 c -6.28281,5.88603 -8.51322,7.12717 -12.82529,7.13679 -2.87091,0.006 -5.61315,0.64803 -6.09387,1.42585 -1.28291,2.07579 -3.53553,1.72295 -3.53553,-0.55379 z"
       id="vic" />
    <path
       style="fill:#c8ffc8;fill-opacity:0.8;stroke:#000000;stroke-width:1;stroke-miterlimit:10;stroke-opacity:1;stroke-dasharray:none"
       d="m 567.53725,681.80947 c -3.60794,-0.4442 -4.34423,-0.99304 -3.19304,-2.38014 1.11909,-1.34841 0.60786,-2.20757 -2.02828,-3.40867 -1.93846,-0.88323 -3.52448,-2.36489 -3.52448,-3.29259 0,-0.9277 -0.90501,-2.69144 -2.01114,-3.91941 -1.10612,-1.22797 -2.44971,-3.98996 -2.98575,-6.13775 -0.80445,-3.22328 -0.57678,-3.75241 1.30403,-3.03067 2.86745,1.10034 2.96062,-1.37264 0.15733,-4.17593 -1.16673,-1.16673 -2.12132,-3.08382 -2.12132,-4.2602 0,-1.17638 -0.58774,-2.50211 -1.30609,-2.94607 -2.25773,-1.39536 -6.0761,-14.89818 -5.20002,-18.38876 1.02463,-4.08245 3.85493,-3.60996 14.69843,2.45375 4.11686,2.30216 9.38856,4.33548 11.71487,4.51848 2.32632,0.183 5.1108,1.53776 6.18774,3.01056 1.07695,1.47281 2.43048,2.20544 3.00785,1.62807 0.57737,-0.57737 -0.10563,-2.32646 -1.51777,-3.88686 -2.53158,-2.79737 -2.4803,-2.84022 3.66205,-3.05989 3.42628,-0.12253 7.1749,-0.16827 8.33028,-0.10165 1.15537,0.0666 2.51611,-0.55105 3.02386,-1.37261 0.50776,-0.82156 1.688,-1.02106 2.62277,-0.44335 2.3041,1.42402 0.42794,20.81296 -2.15879,22.3098 -1.02415,0.59263 -2.87152,4.54984 -4.10527,8.79379 -2.15538,7.41424 -2.38414,7.66268 -5.84437,6.3471 -4.76095,-1.81011 -4.47828,-1.9531 -5.52065,2.79277 -0.57774,2.63042 -1.59569,3.9004 -2.76631,3.45119 -1.1226,-0.43078 -2.21008,0.71515 -2.76073,2.90913 -0.4997,1.99093 -1.37371,3.51803 -1.94225,3.39355 -0.56855,-0.12448 -3.14387,-0.48612 -5.72295,-0.80364 l 0,0 z"
       id="tas" />
    <path
       style="fill:#e6ffe6;fill-opacity:0.8;stroke:#000000;stroke-width:1;stroke-miterlimit:10;stroke-opacity:1;stroke-dasharray:none"
       d="m 623.54451,536.54695 c -0.6829,-0.0985 -0.88388,-0.36329 -0.88388,-1.16467 0,-0.63136 -0.1042,-0.83892 -0.7213,-1.43676 l -0.72129,-0.69879 0.0584,-2.1385 c 0.0333,-1.21829 0.14335,-2.2452 0.25584,-2.38648 0.34858,-0.43777 0.96549,-2.3122 0.8651,-2.6285 -0.0792,-0.24955 0.34934,-0.50664 2.32447,-1.39446 l 2.42158,-1.08849 0.45445,0.39501 c 1.71686,1.49229 1.7931,1.59414 1.51318,2.02134 -0.14477,0.22096 -0.26322,0.52235 -0.26322,0.66976 0,0.14741 -0.19534,0.31704 -0.43408,0.37696 -0.49661,0.12464 -1.33243,1.13141 -1.33626,1.60957 -0.003,0.34335 -0.4358,1.67517 -0.71327,2.19362 -0.0924,0.17256 -0.38643,0.33892 -0.65351,0.36969 -0.75476,0.087 -1.08651,0.95828 -1.0982,2.88437 -0.0112,1.85147 -0.30925,2.52573 -1.06799,2.41633 z"
       id="act" />
    <text
       xml:space="preserve"
       style="font-size:20px;font-style:normal;font-weight:normal;text-align:center;text-anchor:middle;fill:#000000;fill-opacity:1;stroke:none;font-family:Bitstream Vera Sans"
       x="179.4595"
       y="347.40594"
       id="wa_text"><tspan
         sodipodi:role="line"
         x="179.4595"
         y="347.40594"
         id="tspan2825">530</tspan></text>
    <text
       xml:space="preserve"
       style="font-size:20px;font-style:normal;font-weight:normal;text-align:center;text-anchor:middle;fill:#000000;fill-opacity:1;stroke:none;font-family:Bitstream Vera Sans"
       x="376.60236"
       y="233.12024"
       id="nt_text"><tspan
         sodipodi:role="line"
         id="tspan2831"
         x="376.60236"
         y="233.12024">486</tspan></text>
    <text
       xml:space="preserve"
       style="font-size:20px;font-style:normal;font-weight:normal;text-align:center;text-anchor:middle;fill:#000000;fill-opacity:1;stroke:none;font-family:Bitstream Vera Sans"
       x="400.88806"
       y="401.69168"
       id="sa_text"><tspan
         sodipodi:role="line"
         id="tspan2835"
         x="400.88806"
         y="401.69168">538</tspan></text>
    <text
       xml:space="preserve"
       style="font-size:20px;font-style:normal;font-weight:normal;text-align:center;text-anchor:middle;fill:#000000;fill-opacity:1;stroke:none;font-family:Bitstream Vera Sans"
       x="573.74524"
       y="298.83453"
       id="qld_text"><tspan
         sodipodi:role="line"
         id="tspan2839"
         x="573.74524"
         y="298.83453">534</tspan></text>
    <text
       xml:space="preserve"
       style="font-size:20px;font-style:normal;font-weight:normal;text-align:center;text-anchor:middle;fill:#000000;fill-opacity:1;stroke:none;font-family:Bitstream Vera Sans"
       x="598.03094"
       y="477.40594"
       id="nsw_text"><tspan
         sodipodi:role="line"
         id="tspan2843"
         x="598.03094"
         y="477.40594">552</tspan></text>
    <text
       xml:space="preserve"
       style="font-size:20px;font-style:normal;font-weight:normal;text-align:center;text-anchor:middle;fill:#000000;fill-opacity:1;stroke:none;font-family:Bitstream Vera Sans"
       x="549.45953"
       y="565.97742"
       id="vic_text"><tspan
         sodipodi:role="line"
         id="tspan2847"
         x="549.45953"
         y="565.97742">561</tspan></text>
    <text
       xml:space="preserve"
       style="font-size:20px;font-style:normal;font-weight:normal;text-align:center;text-anchor:middle;fill:#000000;fill-opacity:1;stroke:none;font-family:Bitstream Vera Sans"
       x="498.03091"
       y="667.40601"
       id="tas_text"><tspan
         sodipodi:role="line"
         id="tspan2851"
         x="498.03091"
         y="667.40601">537</tspan></text>
    <text
       xml:space="preserve"
       style="font-size:20px;font-style:normal;font-weight:normal;text-align:center;text-anchor:middle;fill:#000000;fill-opacity:1;stroke:none;font-family:Bitstream Vera Sans"
       x="679.45947"
       y="560.26306"
       id="act_text"><tspan
         sodipodi:role="line"
         id="tspan2855"
         x="679.45947"
         y="560.26306">560</tspan></text>
  </g>
</svg>
